<svg width="245" height="245" viewBox="0 0 245 245" fill="none" xmlns="http://www.w3.org/2000/svg">
<rect width="245" height="245" rx="12" fill="#D8D0BD"/>
<path d="M120.357 97.8571V82H125.643V97.8571H141.5V103.143H125.643V119H120.357V103.143H104.5V97.8571H120.357Z" fill="#0C5446"/>
<path d="M66.5433 142.909H68.9148V151.462C68.9148 152.399 68.6932 153.224 68.25 153.935C67.8111 154.647 67.1932 155.203 66.3963 155.604C65.5994 156 64.6683 156.198 63.603 156.198C62.5334 156.198 61.6001 156 60.8033 155.604C60.0064 155.203 59.3885 154.647 58.9496 153.935C58.5107 153.224 58.2912 152.399 58.2912 151.462V142.909H60.6626V151.263C60.6626 151.809 60.782 152.295 61.0206 152.721C61.2635 153.147 61.6044 153.482 62.0433 153.724C62.4822 153.963 63.0021 154.082 63.603 154.082C64.2038 154.082 64.7237 153.963 65.1626 153.724C65.6058 153.482 65.9467 153.147 66.1854 152.721C66.424 152.295 66.5433 151.809 66.5433 151.263V142.909ZM71.3901 159.682V146.182H73.6657V147.805H73.7999C73.9192 147.567 74.0875 147.313 74.3049 147.045C74.5222 146.772 74.8162 146.54 75.187 146.348C75.5577 146.152 76.0307 146.054 76.606 146.054C77.3645 146.054 78.0485 146.248 78.6578 146.636C79.2715 147.019 79.7573 147.588 80.1152 148.342C80.4775 149.092 80.6586 150.013 80.6586 151.104C80.6586 152.182 80.4817 153.098 80.128 153.852C79.7743 154.607 79.2928 155.182 78.6834 155.578C78.074 155.974 77.3837 156.173 76.6124 156.173C76.0499 156.173 75.5833 156.079 75.2125 155.891C74.8418 155.704 74.5435 155.478 74.3176 155.214C74.0961 154.945 73.9235 154.692 73.7999 154.453H73.704V159.682H71.3901ZM73.6593 151.091C73.6593 151.726 73.7488 152.282 73.9277 152.759C74.111 153.237 74.373 153.609 74.714 153.878C75.0591 154.142 75.4767 154.274 75.9668 154.274C76.4782 154.274 76.9064 154.138 77.2516 153.865C77.5968 153.588 77.8567 153.211 78.0314 152.734C78.2104 152.252 78.2999 151.705 78.2999 151.091C78.2999 150.482 78.2125 149.94 78.0378 149.467C77.8631 148.994 77.6032 148.624 77.258 148.355C76.9128 148.087 76.4824 147.952 75.9668 147.952C75.4725 147.952 75.0527 148.082 74.7076 148.342C74.3624 148.602 74.1003 148.967 73.9213 149.435C73.7466 149.904 73.6593 150.456 73.6593 151.091ZM84.954 142.909V156H82.6401V142.909H84.954ZM91.6161 156.192C90.6573 156.192 89.8263 155.981 89.1232 155.559C88.4201 155.137 87.8746 154.547 87.4869 153.788C87.1033 153.03 86.9116 152.143 86.9116 151.129C86.9116 150.115 87.1033 149.227 87.4869 148.464C87.8746 147.701 88.4201 147.109 89.1232 146.687C89.8263 146.265 90.6573 146.054 91.6161 146.054C92.5749 146.054 93.4059 146.265 94.109 146.687C94.8121 147.109 95.3555 147.701 95.739 148.464C96.1268 149.227 96.3207 150.115 96.3207 151.129C96.3207 152.143 96.1268 153.03 95.739 153.788C95.3555 154.547 94.8121 155.137 94.109 155.559C93.4059 155.981 92.5749 156.192 91.6161 156.192ZM91.6289 154.338C92.1488 154.338 92.5835 154.195 92.9329 153.91C93.2823 153.62 93.5423 153.232 93.7127 152.746C93.8874 152.261 93.9748 151.719 93.9748 151.123C93.9748 150.522 93.8874 149.979 93.7127 149.493C93.5423 149.003 93.2823 148.613 92.9329 148.323C92.5835 148.033 92.1488 147.888 91.6289 147.888C91.0962 147.888 90.6531 148.033 90.2994 148.323C89.9499 148.613 89.6879 149.003 89.5131 149.493C89.3427 149.979 89.2575 150.522 89.2575 151.123C89.2575 151.719 89.3427 152.261 89.5131 152.746C89.6879 153.232 89.9499 153.62 90.2994 153.91C90.6531 154.195 91.0962 154.338 91.6289 154.338ZM101.11 156.198C100.488 156.198 99.9274 156.087 99.4288 155.866C98.9345 155.64 98.5424 155.308 98.2527 154.869C97.9672 154.43 97.8244 153.888 97.8244 153.245C97.8244 152.691 97.9267 152.233 98.1312 151.871C98.3358 151.509 98.6149 151.219 98.9686 151.001C99.3223 150.784 99.7207 150.62 100.164 150.509C100.611 150.394 101.074 150.311 101.551 150.26C102.126 150.2 102.593 150.147 102.951 150.1C103.309 150.049 103.569 149.972 103.731 149.87C103.897 149.763 103.98 149.599 103.98 149.378V149.339C103.98 148.858 103.837 148.485 103.552 148.221C103.266 147.957 102.855 147.825 102.318 147.825C101.751 147.825 101.302 147.948 100.969 148.195C100.641 148.442 100.42 148.734 100.305 149.071L98.144 148.764C98.3145 148.168 98.5957 147.669 98.9877 147.268C99.3798 146.864 99.8592 146.561 100.426 146.361C100.993 146.156 101.619 146.054 102.305 146.054C102.778 146.054 103.249 146.109 103.718 146.22C104.187 146.331 104.615 146.514 105.003 146.77C105.39 147.021 105.702 147.364 105.936 147.799C106.175 148.234 106.294 148.777 106.294 149.429V156H104.069V154.651H103.993C103.852 154.924 103.654 155.18 103.398 155.418C103.147 155.653 102.829 155.842 102.446 155.987C102.067 156.128 101.621 156.198 101.11 156.198ZM101.711 154.498C102.175 154.498 102.578 154.406 102.919 154.223C103.26 154.036 103.522 153.788 103.705 153.482C103.893 153.175 103.986 152.84 103.986 152.478V151.321C103.914 151.381 103.79 151.436 103.616 151.487C103.445 151.538 103.253 151.583 103.04 151.621C102.827 151.66 102.616 151.694 102.407 151.724C102.199 151.754 102.018 151.779 101.864 151.8C101.519 151.847 101.21 151.924 100.937 152.031C100.665 152.137 100.449 152.286 100.292 152.478C100.134 152.665 100.055 152.908 100.055 153.207C100.055 153.633 100.211 153.955 100.522 154.172C100.833 154.389 101.229 154.498 101.711 154.498ZM112.264 156.173C111.493 156.173 110.802 155.974 110.193 155.578C109.584 155.182 109.102 154.607 108.748 153.852C108.395 153.098 108.218 152.182 108.218 151.104C108.218 150.013 108.397 149.092 108.755 148.342C109.117 147.588 109.605 147.019 110.219 146.636C110.832 146.248 111.516 146.054 112.27 146.054C112.846 146.054 113.319 146.152 113.689 146.348C114.06 146.54 114.354 146.772 114.572 147.045C114.789 147.313 114.957 147.567 115.077 147.805H115.172V142.909H117.493V156H115.217V154.453H115.077C114.957 154.692 114.785 154.945 114.559 155.214C114.333 155.478 114.035 155.704 113.664 155.891C113.293 156.079 112.827 156.173 112.264 156.173ZM112.91 154.274C113.4 154.274 113.817 154.142 114.162 153.878C114.508 153.609 114.77 153.237 114.949 152.759C115.128 152.282 115.217 151.726 115.217 151.091C115.217 150.456 115.128 149.904 114.949 149.435C114.774 148.967 114.514 148.602 114.169 148.342C113.828 148.082 113.408 147.952 112.91 147.952C112.394 147.952 111.964 148.087 111.618 148.355C111.273 148.624 111.013 148.994 110.839 149.467C110.664 149.94 110.577 150.482 110.577 151.091C110.577 151.705 110.664 152.252 110.839 152.734C111.018 153.211 111.28 153.588 111.625 153.865C111.974 154.138 112.403 154.274 112.91 154.274ZM127.249 156.198C126.626 156.198 126.066 156.087 125.567 155.866C125.073 155.64 124.681 155.308 124.391 154.869C124.106 154.43 123.963 153.888 123.963 153.245C123.963 152.691 124.065 152.233 124.27 151.871C124.474 151.509 124.754 151.219 125.107 151.001C125.461 150.784 125.859 150.62 126.303 150.509C126.75 150.394 127.212 150.311 127.69 150.26C128.265 150.2 128.732 150.147 129.089 150.1C129.447 150.049 129.707 149.972 129.869 149.87C130.036 149.763 130.119 149.599 130.119 149.378V149.339C130.119 148.858 129.976 148.485 129.69 148.221C129.405 147.957 128.994 147.825 128.457 147.825C127.89 147.825 127.44 147.948 127.108 148.195C126.78 148.442 126.558 148.734 126.443 149.071L124.283 148.764C124.453 148.168 124.734 147.669 125.126 147.268C125.518 146.864 125.998 146.561 126.565 146.361C127.131 146.156 127.758 146.054 128.444 146.054C128.917 146.054 129.388 146.109 129.857 146.22C130.325 146.331 130.754 146.514 131.141 146.77C131.529 147.021 131.84 147.364 132.075 147.799C132.313 148.234 132.433 148.777 132.433 149.429V156H130.208V154.651H130.131C129.991 154.924 129.793 155.18 129.537 155.418C129.286 155.653 128.968 155.842 128.585 155.987C128.205 156.128 127.76 156.198 127.249 156.198ZM127.849 154.498C128.314 154.498 128.717 154.406 129.058 154.223C129.398 154.036 129.661 153.788 129.844 153.482C130.031 153.175 130.125 152.84 130.125 152.478V151.321C130.053 151.381 129.929 151.436 129.754 151.487C129.584 151.538 129.392 151.583 129.179 151.621C128.966 151.66 128.755 151.694 128.546 151.724C128.337 151.754 128.156 151.779 128.003 151.8C127.658 151.847 127.349 151.924 127.076 152.031C126.803 152.137 126.588 152.286 126.43 152.478C126.273 152.665 126.194 152.908 126.194 153.207C126.194 153.633 126.349 153.955 126.661 154.172C126.972 154.389 127.368 154.498 127.849 154.498ZM139.224 159.682V146.182H141.5V147.805H141.634C141.753 147.567 141.922 147.313 142.139 147.045C142.356 146.772 142.65 146.54 143.021 146.348C143.392 146.152 143.865 146.054 144.44 146.054C145.199 146.054 145.882 146.248 146.492 146.636C147.105 147.019 147.591 147.588 147.949 148.342C148.311 149.092 148.493 150.013 148.493 151.104C148.493 152.182 148.316 153.098 147.962 153.852C147.608 154.607 147.127 155.182 146.517 155.578C145.908 155.974 145.218 156.173 144.446 156.173C143.884 156.173 143.417 156.079 143.047 155.891C142.676 155.704 142.377 155.478 142.152 155.214C141.93 154.945 141.757 154.692 141.634 154.453H141.538V159.682H139.224ZM141.493 151.091C141.493 151.726 141.583 152.282 141.762 152.759C141.945 153.237 142.207 153.609 142.548 153.878C142.893 154.142 143.311 154.274 143.801 154.274C144.312 154.274 144.74 154.138 145.086 153.865C145.431 153.588 145.691 153.211 145.865 152.734C146.044 152.252 146.134 151.705 146.134 151.091C146.134 150.482 146.047 149.94 145.872 149.467C145.697 148.994 145.437 148.624 145.092 148.355C144.747 148.087 144.316 147.952 143.801 147.952C143.306 147.952 142.887 148.082 142.542 148.342C142.196 148.602 141.934 148.967 141.755 149.435C141.581 149.904 141.493 150.456 141.493 151.091ZM152.788 150.247V156H150.474V142.909H152.737V147.85H152.852C153.082 147.296 153.438 146.859 153.919 146.54C154.405 146.216 155.023 146.054 155.773 146.054C156.455 146.054 157.049 146.197 157.556 146.482C158.064 146.768 158.456 147.185 158.733 147.735C159.014 148.285 159.154 148.956 159.154 149.749V156H156.841V150.107C156.841 149.446 156.67 148.933 156.329 148.566C155.993 148.195 155.52 148.01 154.91 148.01C154.501 148.01 154.135 148.099 153.811 148.278C153.491 148.453 153.24 148.707 153.056 149.039C152.877 149.371 152.788 149.774 152.788 150.247ZM165.796 156.192C164.837 156.192 164.006 155.981 163.303 155.559C162.6 155.137 162.054 154.547 161.667 153.788C161.283 153.03 161.091 152.143 161.091 151.129C161.091 150.115 161.283 149.227 161.667 148.464C162.054 147.701 162.6 147.109 163.303 146.687C164.006 146.265 164.837 146.054 165.796 146.054C166.755 146.054 167.586 146.265 168.289 146.687C168.992 147.109 169.535 147.701 169.919 148.464C170.306 149.227 170.5 150.115 170.5 151.129C170.5 152.143 170.306 153.03 169.919 153.788C169.535 154.547 168.992 155.137 168.289 155.559C167.586 155.981 166.755 156.192 165.796 156.192ZM165.809 154.338C166.328 154.338 166.763 154.195 167.113 153.91C167.462 153.62 167.722 153.232 167.892 152.746C168.067 152.261 168.154 151.719 168.154 151.123C168.154 150.522 168.067 149.979 167.892 149.493C167.722 149.003 167.462 148.613 167.113 148.323C166.763 148.033 166.328 147.888 165.809 147.888C165.276 147.888 164.833 148.033 164.479 148.323C164.13 148.613 163.868 149.003 163.693 149.493C163.522 149.979 163.437 150.522 163.437 151.123C163.437 151.719 163.522 152.261 163.693 152.746C163.868 153.232 164.13 153.62 164.479 153.91C164.833 154.195 165.276 154.338 165.809 154.338ZM177.367 146.182V147.972H171.723V146.182H177.367ZM173.116 143.83H175.43V153.047C175.43 153.358 175.477 153.597 175.571 153.763C175.669 153.925 175.797 154.036 175.954 154.095C176.112 154.155 176.287 154.185 176.479 154.185C176.623 154.185 176.756 154.174 176.875 154.153C176.998 154.131 177.092 154.112 177.156 154.095L177.546 155.904C177.422 155.947 177.246 155.994 177.015 156.045C176.79 156.096 176.513 156.126 176.184 156.134C175.605 156.151 175.083 156.064 174.618 155.872C174.154 155.676 173.785 155.374 173.513 154.964C173.244 154.555 173.112 154.044 173.116 153.43V143.83ZM183.479 156.192C182.521 156.192 181.69 155.981 180.987 155.559C180.283 155.137 179.738 154.547 179.35 153.788C178.967 153.03 178.775 152.143 178.775 151.129C178.775 150.115 178.967 149.227 179.35 148.464C179.738 147.701 180.283 147.109 180.987 146.687C181.69 146.265 182.521 146.054 183.479 146.054C184.438 146.054 185.269 146.265 185.972 146.687C186.675 147.109 187.219 147.701 187.602 148.464C187.99 149.227 188.184 150.115 188.184 151.129C188.184 152.143 187.99 153.03 187.602 153.788C187.219 154.547 186.675 155.137 185.972 155.559C185.269 155.981 184.438 156.192 183.479 156.192ZM183.492 154.338C184.012 154.338 184.447 154.195 184.796 153.91C185.146 153.62 185.406 153.232 185.576 152.746C185.751 152.261 185.838 151.719 185.838 151.123C185.838 150.522 185.751 149.979 185.576 149.493C185.406 149.003 185.146 148.613 184.796 148.323C184.447 148.033 184.012 147.888 183.492 147.888C182.96 147.888 182.516 148.033 182.163 148.323C181.813 148.613 181.551 149.003 181.376 149.493C181.206 149.979 181.121 150.522 181.121 151.123C181.121 151.719 181.206 152.261 181.376 152.746C181.551 153.232 181.813 153.62 182.163 153.91C182.516 154.195 182.96 154.338 183.492 154.338Z" fill="#0C5446"/>
</svg>
