<svg width="585" height="185" viewBox="0 0 585 185" fill="none" xmlns="http://www.w3.org/2000/svg">
<path fill-rule="evenodd" clip-rule="evenodd" d="M13.9675 98.8138C13.9675 95.6037 12.3822 92.646 10.0474 90.4429C3.74489 84.4956 0 77.0586 0 68.9896C0 49.4826 21.8871 33.6689 48.8862 33.6689C57.6376 33.6689 65.8519 35.3304 72.9578 38.2405C76.065 39.513 79.5728 39.513 82.6799 38.2405C89.7858 35.3304 98.0001 33.6689 106.752 33.6689C133.751 33.6689 155.638 49.4826 155.638 68.9896C155.638 77.0586 151.893 84.4956 145.59 90.4429C143.256 92.646 141.67 95.6038 141.67 98.8139V174.088C141.67 179.67 137.145 184.194 131.564 184.194H24.0738C18.4922 184.194 13.9675 179.67 13.9675 174.088V98.8138Z" fill="#FFFEF8"/>
<path fill-rule="evenodd" clip-rule="evenodd" d="M10.1063 68.9896C10.1063 73.7407 12.2786 78.6527 16.9835 83.0924C20.8346 86.7264 24.0738 92.1939 24.0738 98.8138L24.0738 174.088H131.564V98.8139C131.564 92.1939 134.803 86.7265 138.654 83.0924C143.359 78.6527 145.531 73.7408 145.531 68.9896C145.531 63.2955 142.356 57.2314 135.401 52.206C128.458 47.1902 118.362 43.7753 106.752 43.7753C99.2633 43.7753 92.3546 45.1994 86.5101 47.593C80.9484 49.8707 74.6893 49.8707 69.1277 47.593C63.2831 45.1994 56.3745 43.7753 48.8862 43.7753C37.2758 43.7753 27.1794 47.1902 20.2371 52.206C13.2817 57.2314 10.1063 63.2955 10.1063 68.9896ZM10.0474 90.4429C12.3822 92.646 13.9675 95.6037 13.9675 98.8138V174.088C13.9675 179.67 18.4922 184.194 24.0738 184.194H131.564C137.145 184.194 141.67 179.67 141.67 174.088V98.8139C141.67 95.6038 143.256 92.646 145.59 90.4429C151.893 84.4956 155.638 77.0586 155.638 68.9896C155.638 49.4826 133.751 33.6689 106.752 33.6689C98.0001 33.6689 89.7858 35.3304 82.6799 38.2405C79.5728 39.513 76.065 39.513 72.9578 38.2405C65.8519 35.3304 57.6376 33.6689 48.8862 33.6689C21.8871 33.6689 0 49.4826 0 68.9896C0 77.0586 3.74489 84.4956 10.0474 90.4429Z" fill="#ECD8A9"/>
<path d="M60.0205 88.6924C60.0205 92.5685 56.8783 95.7107 53.0022 95.7107C49.1261 95.7107 45.9839 92.5685 45.9839 88.6924C45.9839 84.8163 49.1261 81.6741 53.0022 81.6741C56.8783 81.6741 60.0205 84.8163 60.0205 88.6924Z" fill="#0C5446"/>
<path d="M109.148 88.6924C109.148 92.5685 106.006 95.7107 102.13 95.7107C98.254 95.7107 95.1118 92.5685 95.1118 88.6924C95.1118 84.8163 98.254 81.6741 102.13 81.6741C106.006 81.6741 109.148 84.8163 109.148 88.6924Z" fill="#0C5446"/>
<path fill-rule="evenodd" clip-rule="evenodd" d="M77.5328 95.7127C77.5134 95.7114 77.4938 95.7107 77.4741 95.7107C76.998 95.7107 76.619 96.099 76.5447 96.5693C76.4772 96.997 76.3593 97.4163 76.1929 97.8182C75.9161 98.4864 75.5104 99.0935 74.9991 99.6049C74.4877 100.116 73.8806 100.522 73.2124 100.799C72.5442 101.075 71.8281 101.218 71.1049 101.218C70.3817 101.218 69.6656 101.075 68.9974 100.799C68.3292 100.522 67.7221 100.116 67.2107 99.6049C66.6994 99.0935 66.2937 98.4864 66.0169 97.8182C65.8505 97.4163 65.7326 96.997 65.6651 96.5693C65.5908 96.099 65.2118 95.7107 64.7357 95.7107C64.2595 95.7107 63.8683 96.098 63.9249 96.5707C64.0033 97.225 64.1708 97.8668 64.424 98.478C64.7874 99.3554 65.3201 100.153 65.9916 100.824C66.6631 101.496 67.4602 102.028 68.3376 102.392C69.2149 102.755 70.1553 102.942 71.1049 102.942C72.0545 102.942 72.9949 102.755 73.8722 102.392C74.7496 102.028 75.5467 101.496 76.2182 100.824C76.7477 100.295 77.1908 99.6869 77.5328 99.0235C77.8747 99.6869 78.3178 100.295 78.8473 100.824C79.5188 101.496 80.316 102.028 81.1933 102.392C82.0707 102.755 83.011 102.942 83.9606 102.942C84.9102 102.942 85.8506 102.755 86.7279 102.392C87.6053 102.028 88.4024 101.496 89.0739 100.824C89.7454 100.153 90.2781 99.3554 90.6415 98.478C90.8947 97.8668 91.0623 97.225 91.1406 96.5707C91.1972 96.098 90.806 95.7107 90.3299 95.7107C89.8538 95.7107 89.4747 96.099 89.4004 96.5693C89.3329 96.997 89.2151 97.4163 89.0486 97.8182C88.7718 98.4864 88.3662 99.0935 87.8548 99.6049C87.3434 100.116 86.7363 100.522 86.0681 100.799C85.4 101.075 84.6838 101.218 83.9606 101.218C83.2374 101.218 82.5213 101.075 81.8531 100.799C81.185 100.522 80.5778 100.116 80.0665 99.6049C79.5551 99.0935 79.1494 98.4864 78.8727 97.8182C78.7062 97.4163 78.5883 96.997 78.5208 96.5693C78.4466 96.099 78.0675 95.7107 77.5914 95.7107C77.5717 95.7107 77.5521 95.7114 77.5328 95.7127Z" fill="#0C5446"/>
<path d="M196.701 22.5268L206.442 41.3549C206.919 42.2762 207.834 42.8899 208.867 42.9817L253.764 46.9728C254.893 47.0732 255.983 46.5355 256.591 45.5789L266.61 29.8124C268.089 27.4846 265.944 24.551 263.277 25.2548L262.711 25.4042C260.788 25.9117 258.906 24.4615 258.906 22.4727V8.52174C258.906 6.159 256.323 4.70424 254.302 5.92892L245.62 11.1911C244.093 12.1166 242.101 11.5286 241.321 9.92219L237.334 1.70795C236.23 -0.567464 232.989 -0.569837 231.881 1.70396L227.157 11.3993C226.143 13.4805 223.265 13.7033 221.943 11.8029L217.44 5.33074C215.819 3.00172 212.174 3.97545 211.93 6.80224L210.894 18.8402C210.71 20.9713 208.437 22.2475 206.522 21.2945L200.745 18.4193C198.12 17.1129 195.354 19.9227 196.701 22.5268Z" fill="#649188"/>
<path d="M209.903 165.57C214.984 190.623 250.895 190.312 255.541 165.175L275.05 59.6278C276.74 50.4847 272.914 41.0351 264.767 36.5538C239.944 22.8995 222.209 23.2395 198.562 36.3755C190.347 40.939 186.58 50.5605 188.448 59.7706L209.903 165.57Z" fill="#FD8331"/>
<path d="M220.229 61.2852C220.229 63.7969 218.193 65.833 215.682 65.833C213.17 65.833 211.134 63.7969 211.134 61.2852C211.134 58.7734 213.17 56.7373 215.682 56.7373C218.193 56.7373 220.229 58.7734 220.229 61.2852Z" fill="#0C5446"/>
<path d="M252.064 61.2852C252.064 63.7969 250.028 65.833 247.517 65.833C245.005 65.833 242.969 63.7969 242.969 61.2852C242.969 58.7734 245.005 56.7373 247.517 56.7373C250.028 56.7373 252.064 58.7734 252.064 61.2852Z" fill="#0C5446"/>
<path fill-rule="evenodd" clip-rule="evenodd" d="M231.577 65.8343C231.565 65.8334 231.552 65.833 231.539 65.833C231.231 65.833 230.985 66.0846 230.937 66.3894C230.893 66.6665 230.817 66.9382 230.709 67.1987C230.53 67.6316 230.267 68.025 229.935 68.3564C229.604 68.6878 229.211 68.9507 228.778 69.13C228.345 69.3094 227.881 69.4017 227.412 69.4017C226.943 69.4017 226.479 69.3093 226.046 69.13C225.613 68.9507 225.22 68.6878 224.889 68.3564C224.557 68.025 224.294 67.6316 224.115 67.1987C224.007 66.9382 223.931 66.6665 223.887 66.3894C223.839 66.0846 223.593 65.833 223.285 65.833C222.976 65.833 222.723 66.084 222.759 66.3903C222.81 66.8143 222.919 67.2301 223.083 67.6262C223.318 68.1947 223.663 68.7113 224.099 69.1464C224.534 69.5816 225.05 69.9267 225.619 70.1622C226.187 70.3977 226.797 70.5189 227.412 70.5189C228.027 70.5189 228.637 70.3977 229.205 70.1622C229.774 69.9267 230.29 69.5816 230.725 69.1464C231.069 68.8034 231.356 68.4096 231.577 67.9797C231.799 68.4096 232.086 68.8034 232.429 69.1464C232.864 69.5816 233.381 69.9267 233.949 70.1622C234.518 70.3977 235.127 70.5189 235.743 70.5189C236.358 70.5189 236.967 70.3977 237.536 70.1622C238.104 69.9267 238.621 69.5816 239.056 69.1464C239.491 68.7113 239.836 68.1947 240.072 67.6262C240.236 67.2301 240.344 66.8143 240.395 66.3903C240.432 66.084 240.178 65.833 239.87 65.833C239.561 65.833 239.316 66.0846 239.268 66.3894C239.224 66.6665 239.147 66.9382 239.04 67.1987C238.86 67.6316 238.597 68.025 238.266 68.3564C237.935 68.6878 237.541 68.9507 237.108 69.13C236.675 69.3094 236.211 69.4017 235.743 69.4017C235.274 69.4017 234.81 69.3093 234.377 69.13C233.944 68.9507 233.551 68.6878 233.219 68.3564C232.888 68.025 232.625 67.6316 232.446 67.1987C232.338 66.9382 232.261 66.6665 232.218 66.3894C232.169 66.0846 231.924 65.833 231.615 65.833C231.603 65.833 231.59 65.8334 231.577 65.8343Z" fill="#0C5446"/>
<path fill-rule="evenodd" clip-rule="evenodd" d="M199.074 88.0053C199.248 87.6243 199.697 87.4561 200.078 87.6296C213.15 93.5832 222.898 96.3421 232.256 96.2553C241.611 96.1686 250.664 93.2371 262.348 87.6359C262.726 87.455 263.179 87.6143 263.36 87.9918C263.54 88.3693 263.381 88.822 263.004 89.0029C251.243 94.6406 241.953 97.6814 232.27 97.7712C222.589 97.8609 212.604 95.0004 199.45 89.0092C199.069 88.8357 198.901 88.3862 199.074 88.0053Z" fill="#FF6700"/>
<path fill-rule="evenodd" clip-rule="evenodd" d="M259.845 118.11C259.997 118.499 259.805 118.939 259.415 119.092C248.689 123.289 240.266 125.622 231.821 125.723C223.368 125.825 214.963 123.691 204.265 119.082C203.88 118.916 203.703 118.47 203.869 118.086C204.034 117.701 204.48 117.524 204.865 117.69C215.455 122.253 223.64 124.305 231.803 124.207C239.974 124.109 248.194 121.855 258.863 117.68C259.253 117.527 259.692 117.72 259.845 118.11Z" fill="#FF6700"/>
<path fill-rule="evenodd" clip-rule="evenodd" d="M210.435 150.433C210.597 150.047 211.041 149.865 211.427 150.027C219.478 153.409 225.659 155.121 231.752 155.149C237.84 155.177 243.917 153.523 251.756 150.034C252.139 149.863 252.587 150.036 252.757 150.418C252.927 150.8 252.755 151.248 252.373 151.419C244.435 154.951 238.134 156.694 231.745 156.665C225.361 156.636 218.965 154.838 210.84 151.425C210.454 151.263 210.273 150.819 210.435 150.433Z" fill="#FF6700"/>
<ellipse cx="396.112" cy="85.84" rx="29.9626" ry="17.4782" transform="rotate(163.064 396.112 85.84)" fill="#0C5446"/>
<ellipse cx="376.091" cy="75.269" rx="29.9626" ry="17.4782" transform="rotate(124.673 376.091 75.269)" fill="#0C5446"/>
<path fill-rule="evenodd" clip-rule="evenodd" d="M349.725 82.6257C355.052 82.6257 360.276 83.6944 365.137 85.7192C369.998 83.6945 375.221 82.6258 380.549 82.6258C391.672 82.6258 402.34 87.2842 410.206 95.5761C418.071 103.868 422.49 115.114 422.49 126.841C422.49 134.373 421.007 141.831 418.124 148.789C415.242 155.748 411.017 162.07 405.692 167.396C400.366 172.722 394.043 176.947 387.085 179.829C380.126 182.711 372.668 184.195 365.137 184.195C357.605 184.195 350.147 182.711 343.188 179.829C336.23 176.947 329.907 172.722 324.582 167.396C319.256 162.07 315.031 155.748 312.149 148.789C309.267 141.831 307.783 134.373 307.783 126.841H338.607V126.841L307.783 126.841C307.783 115.114 312.202 103.868 320.068 95.5761C327.933 87.2841 338.601 82.6257 349.725 82.6257Z" fill="#FF5621"/>
<path d="M349.219 119.514C349.219 123.142 346.278 126.083 342.65 126.083C339.022 126.083 336.081 123.142 336.081 119.514C336.081 115.886 339.022 112.945 342.65 112.945C346.278 112.945 349.219 115.886 349.219 119.514Z" fill="#0C5446"/>
<path d="M394.698 119.514C394.698 123.142 391.757 126.083 388.129 126.083C384.501 126.083 381.56 123.142 381.56 119.514C381.56 115.886 384.501 112.945 388.129 112.945C391.757 112.945 394.698 115.886 394.698 119.514Z" fill="#0C5446"/>
<path fill-rule="evenodd" clip-rule="evenodd" d="M365.389 126.085C365.371 126.084 365.353 126.083 365.335 126.083C364.893 126.083 364.541 126.436 364.472 126.863C364.41 127.252 364.3 127.632 364.146 127.998C363.889 128.604 363.513 129.156 363.038 129.621C362.563 130.085 362 130.454 361.38 130.705C360.76 130.956 360.095 131.086 359.424 131.086C358.753 131.086 358.089 130.956 357.469 130.705C356.849 130.454 356.285 130.085 355.811 129.621C355.336 129.156 354.96 128.604 354.703 127.998C354.548 127.632 354.439 127.252 354.376 126.863C354.307 126.436 353.956 126.083 353.514 126.083C353.072 126.083 352.709 126.435 352.761 126.864C352.834 127.459 352.99 128.042 353.225 128.597C353.562 129.394 354.056 130.118 354.679 130.728C355.302 131.338 356.042 131.822 356.856 132.152C357.67 132.482 358.543 132.652 359.424 132.652C360.306 132.652 361.178 132.482 361.992 132.152C362.807 131.822 363.546 131.338 364.169 130.728C364.661 130.247 365.072 129.695 365.389 129.092C365.707 129.695 366.118 130.247 366.609 130.728C367.232 131.338 367.972 131.822 368.786 132.152C369.6 132.482 370.473 132.652 371.354 132.652C372.235 132.652 373.108 132.482 373.922 132.152C374.736 131.822 375.476 131.338 376.099 130.728C376.722 130.118 377.217 129.394 377.554 128.597C377.789 128.042 377.944 127.459 378.017 126.864C378.07 126.435 377.707 126.083 377.265 126.083C376.823 126.083 376.471 126.436 376.402 126.863C376.34 127.252 376.23 127.632 376.076 127.998C375.819 128.604 375.442 129.156 374.968 129.621C374.493 130.085 373.93 130.454 373.31 130.705C372.69 130.956 372.025 131.086 371.354 131.086C370.683 131.086 370.019 130.956 369.398 130.705C368.778 130.454 368.215 130.085 367.741 129.621C367.266 129.156 366.89 128.604 366.633 127.998C366.478 127.632 366.369 127.252 366.306 126.863C366.237 126.436 365.885 126.083 365.444 126.083C365.425 126.083 365.407 126.084 365.389 126.085Z" fill="#0C5446"/>
<path fill-rule="evenodd" clip-rule="evenodd" d="M521.199 10.5377C500.418 12.2588 486.56 31.4724 474.984 49.5763C464.92 65.3164 462.12 83.0849 462.716 102.001C463.591 129.785 456.061 165.431 479.073 179.408C502.394 193.573 531.095 173.38 552.884 156.767C569.617 144.01 575.867 123.282 580.382 102.168C584.858 81.2345 589.107 58.8581 577.622 41.0761C565.159 21.7814 543.417 8.69772 521.199 10.5377Z" fill="#FFF8F8"/>
<path fill-rule="evenodd" clip-rule="evenodd" d="M501.37 61.6552C501.37 61.6552 522.088 58.3706 534.974 68.7296C539.773 85.6988 527.978 108.245 522.814 127.26C518.035 144.855 513.032 164.418 502.703 171.386C492.379 178.35 481.399 171.906 474.181 160.066C468.166 150.201 469.907 133.245 470.072 117.866C470.223 103.802 469.79 89.531 475.064 77.6249C481.618 62.8283 485.705 64.9397 501.37 61.6552Z" fill="#F77763"/>
<path d="M524.109 146.801C529.807 129.363 537.197 95.0371 540.469 82.0961C540.892 80.542 541.105 77.5044 542.583 74.3258C544.061 71.1472 544.848 68.7084 547.859 66.203C550.87 63.6977 552.686 62.658 557.638 61.799C562.59 60.94 569.06 59.6196 572.62 61.9079C576.179 64.1961 575.306 65.306 575.435 73.2402C575.564 81.1745 576.561 89.8836 573.264 101.579C569.968 113.275 563.78 122.269 558.952 131.718C554.124 141.166 555.713 142.021 549.122 148.822C542.532 155.624 533.428 161.634 526 165.727C518.571 169.82 512.36 173.073 511.982 169.288C511.604 165.503 518.412 164.24 524.109 146.801Z" fill="#F85F48"/>
<path d="M488.525 45.9427C489.403 42.4752 501.876 25.2722 518.551 20.4718C535.227 15.6713 548.631 24.5843 553.622 28.5908C558.613 32.5973 562.613 36.7273 565.626 41.304C568.639 45.8808 577.926 54.5806 557.461 56.6019C536.995 58.6232 529.416 58.6232 513.498 55.5913C497.581 52.5594 490.569 59.1242 486.211 57.8653C481.853 56.6063 487.647 49.4102 488.525 45.9427Z" fill="#E6442B"/>
<path d="M490.506 87.1738C490.506 89.9646 488.243 92.227 485.453 92.227C482.662 92.227 480.399 89.9646 480.399 87.1738C480.399 84.383 482.662 82.1206 485.453 82.1206C488.243 82.1206 490.506 84.383 490.506 87.1738Z" fill="#0C5446"/>
<path d="M525.489 87.1738C525.489 89.9646 523.227 92.227 520.436 92.227C517.645 92.227 515.383 89.9646 515.383 87.1738C515.383 84.383 517.645 82.1206 520.436 82.1206C523.227 82.1206 525.489 84.383 525.489 87.1738Z" fill="#0C5446"/>
<path fill-rule="evenodd" clip-rule="evenodd" d="M502.944 92.2284C502.93 92.2275 502.916 92.2271 502.902 92.2271C502.563 92.2271 502.292 92.4984 502.239 92.827C502.191 93.1259 502.107 93.4189 501.988 93.6998C501.79 94.1667 501.501 94.5909 501.136 94.9482C500.771 95.3056 500.337 95.5891 499.86 95.7825C499.383 95.9759 498.872 96.0754 498.356 96.0754C497.84 96.0754 497.328 95.9759 496.851 95.7825C496.374 95.5891 495.941 95.3056 495.576 94.9482C495.211 94.5909 494.921 94.1667 494.724 93.6998C494.605 93.4189 494.521 93.1259 494.473 92.827C494.42 92.4984 494.149 92.2271 493.809 92.2271C493.469 92.2271 493.19 92.4977 493.23 92.828C493.286 93.2852 493.406 93.7337 493.587 94.1608C493.846 94.7739 494.226 95.331 494.706 95.8002C495.185 96.2694 495.754 96.6416 496.38 96.8956C497.007 97.1495 497.678 97.2802 498.356 97.2802C499.034 97.2802 499.705 97.1495 500.331 96.8956C500.957 96.6416 501.527 96.2694 502.006 95.8002C502.384 95.4302 502.7 95.0056 502.944 94.542C503.188 95.0056 503.505 95.4302 503.883 95.8002C504.362 96.2694 504.931 96.6416 505.557 96.8956C506.183 97.1495 506.855 97.2802 507.533 97.2802C508.21 97.2802 508.882 97.1495 509.508 96.8956C510.134 96.6416 510.703 96.2694 511.183 95.8002C511.662 95.331 512.042 94.7739 512.302 94.1608C512.482 93.7337 512.602 93.2852 512.658 92.828C512.698 92.4977 512.419 92.2271 512.079 92.2271C511.739 92.2271 511.469 92.4984 511.416 92.827C511.368 93.1259 511.283 93.4189 511.165 93.6998C510.967 94.1667 510.677 94.5909 510.312 94.9482C509.947 95.3056 509.514 95.5891 509.037 95.7825C508.56 95.9759 508.049 96.0754 507.533 96.0754C507.016 96.0754 506.505 95.9759 506.028 95.7825C505.551 95.5891 505.118 95.3056 504.753 94.9482C504.388 94.5909 504.098 94.1667 503.901 93.6998C503.782 93.4189 503.698 93.1259 503.649 92.827C503.596 92.4984 503.326 92.2271 502.986 92.2271C502.972 92.2271 502.958 92.2275 502.944 92.2284Z" fill="#0C5446"/>
</svg>
