<svg width="188" height="40" viewBox="0 0 188 40" fill="none" xmlns="http://www.w3.org/2000/svg">
<path d="M8.88892 15.6725H38.8381C41.6114 15.6725 43.8597 17.9207 43.8597 20.6941V31.1187C43.8597 33.8921 41.6114 36.1403 38.8381 36.1403H8.88892V15.6725Z" fill="#FF6700"/>
<path d="M8.94737 36.1403C6.57438 36.1403 4.29858 35.0621 2.62062 33.1429C0.942667 31.2236 -6.60121e-08 28.6206 0 25.9064C6.60122e-08 23.1922 0.942667 20.5892 2.62062 18.6699C4.29858 16.7507 6.57438 15.6725 8.94737 15.6725V36.1403Z" fill="#FF6700"/>
<path d="M24.1038 1.75757H40.6751V17.5756H24.1038V1.75757Z" fill="#FF6700"/>
<path d="M39.8041 0H24.8742C24.5523 0 24.2499 0.154303 24.061 0.414951L23.1433 1.68116C22.6621 2.34517 23.1365 3.27485 23.9565 3.27485H40.7218C41.5419 3.27485 42.0163 2.34517 41.535 1.68116L40.6174 0.414951C40.4284 0.154303 40.1261 0 39.8041 0Z" fill="#FF6700"/>
<path d="M43.3129 34.5029H4.17245C3.85055 34.5029 3.54815 34.6572 3.35924 34.9179L2.44156 36.1841C1.96032 36.8481 2.43471 37.7778 3.25477 37.7778H44.2306C45.0506 37.7778 45.525 36.8481 45.0438 36.1841L44.1261 34.9179C43.9372 34.6572 43.6348 34.5029 43.3129 34.5029Z" fill="#FF6700"/>
<path d="M9.00586 8.07007H14.8538V15.6724H9.00586V8.07007Z" fill="#FF6700"/>
<path d="M14.049 6.43274H9.90353C9.58163 6.43274 9.27923 6.58704 9.09032 6.84769L8.17264 8.1139C7.6914 8.77791 8.16579 9.70759 8.98584 9.70759H14.9667C15.7867 9.70759 16.2611 8.77791 15.7799 8.1139L14.8622 6.84769C14.6733 6.58704 14.3709 6.43274 14.049 6.43274Z" fill="#FF6700"/>
<path d="M27.0176 7.62266C27.0176 6.51331 27.9169 5.61401 29.0262 5.61401H35.7692C36.8785 5.61401 37.7778 6.51331 37.7778 7.62266V11.3247C37.7778 12.434 36.8785 13.3333 35.7692 13.3333H29.0262C27.9169 13.3333 27.0176 12.434 27.0176 11.3247V7.62266Z" fill="#FF6700"/>
<path d="M13.0994 36.1404C13.0994 38.272 11.3714 40.0001 9.23978 40.0001C7.10815 40.0001 5.38013 38.272 5.38013 36.1404C5.38013 34.0088 7.10815 32.2808 9.23978 32.2808C11.3714 32.2808 13.0994 34.0088 13.0994 36.1404Z" fill="#FF6700"/>
<path d="M21.9883 36.1404C21.9883 38.272 20.2603 40.0001 18.1287 40.0001C15.9971 40.0001 14.269 38.272 14.269 36.1404C14.269 34.0088 15.9971 32.2808 18.1287 32.2808C20.2603 32.2808 21.9883 34.0088 21.9883 36.1404Z" fill="#FF6700"/>
<path d="M42.1052 34.152C42.1052 37.3818 39.487 40 36.2573 40C33.0275 40 30.4093 37.3818 30.4093 34.152C30.4093 30.9223 33.0275 28.3041 36.2573 28.3041C39.487 28.3041 42.1052 30.9223 42.1052 34.152Z" fill="#FF6700"/>
<path d="M23.2632 30.3807C22.4354 30.3807 21.6823 30.2082 21.004 29.8632C20.3372 29.5182 19.8083 29.018 19.4174 28.3625C19.0265 27.707 18.8311 26.9135 18.8311 25.982V25.7405C18.8311 24.809 19.0265 24.0155 19.4174 23.36C19.8083 22.7045 20.3372 22.2043 21.004 21.8593C21.6823 21.5143 22.4354 21.3418 23.2632 21.3418C24.0794 21.3418 24.7808 21.4855 25.3671 21.773C25.9535 22.0605 26.4248 22.4573 26.7812 22.9633C27.1492 23.4578 27.3906 24.0213 27.5056 24.6538L25.4016 25.1023C25.3556 24.7573 25.2521 24.4468 25.0912 24.1708C24.9302 23.8948 24.7003 23.6763 24.4014 23.5153C24.1139 23.3543 23.7518 23.2738 23.3149 23.2738C22.878 23.2738 22.4814 23.3715 22.125 23.567C21.78 23.751 21.5041 24.0328 21.2972 24.4123C21.1017 24.7803 21.004 25.2345 21.004 25.775V25.9475C21.004 26.488 21.1017 26.948 21.2972 27.3275C21.5041 27.6955 21.78 27.9772 22.125 28.1727C22.4814 28.3567 22.878 28.4487 23.3149 28.4487C23.9702 28.4487 24.4646 28.282 24.798 27.9485C25.1429 27.6035 25.3614 27.155 25.4533 26.603L27.5573 27.1032C27.4078 27.7127 27.1492 28.2705 26.7812 28.7765C26.4248 29.271 25.9535 29.662 25.3671 29.9495C24.7808 30.2369 24.0794 30.3807 23.2632 30.3807Z" fill="#FFFEF8"/>
<path d="M33.368 30.3807C32.5402 30.3807 31.7871 30.2082 31.1088 29.8632C30.442 29.5182 29.9131 29.018 29.5222 28.3625C29.1313 27.707 28.9359 26.9135 28.9359 25.982V25.7405C28.9359 24.809 29.1313 24.0155 29.5222 23.36C29.9131 22.7045 30.442 22.2043 31.1088 21.8593C31.7871 21.5143 32.5402 21.3418 33.368 21.3418C34.1842 21.3418 34.8856 21.4855 35.4719 21.773C36.0583 22.0605 36.5296 22.4573 36.8861 22.9633C37.254 23.4578 37.4954 24.0213 37.6104 24.6538L35.5064 25.1023C35.4604 24.7573 35.3569 24.4468 35.196 24.1708C35.035 23.8948 34.8051 23.6763 34.5062 23.5153C34.2187 23.3543 33.8566 23.2738 33.4197 23.2738C32.9828 23.2738 32.5862 23.3715 32.2298 23.567C31.8848 23.751 31.6089 24.0328 31.402 24.4123C31.2065 24.7803 31.1088 25.2345 31.1088 25.775V25.9475C31.1088 26.488 31.2065 26.948 31.402 27.3275C31.6089 27.6955 31.8848 27.9772 32.2298 28.1727C32.5862 28.3567 32.9828 28.4487 33.4197 28.4487C34.075 28.4487 34.5694 28.282 34.9028 27.9485C35.2477 27.6035 35.4662 27.155 35.5581 26.603L37.6621 27.1032C37.5126 27.7127 37.254 28.2705 36.8861 28.7765C36.5296 29.271 36.0583 29.662 35.4719 29.9495C34.8856 30.2369 34.1842 30.3807 33.368 30.3807Z" fill="#FFFEF8"/>
<path d="M64.5087 28.336C63.3567 28.336 62.3087 28.096 61.3647 27.616C60.4367 27.136 59.7007 26.44 59.1567 25.528C58.6127 24.616 58.3407 23.512 58.3407 22.216V21.88C58.3407 20.584 58.6127 19.48 59.1567 18.568C59.7007 17.656 60.4367 16.96 61.3647 16.48C62.3087 16 63.3567 15.76 64.5087 15.76C65.6447 15.76 66.6207 15.96 67.4367 16.36C68.2527 16.76 68.9087 17.312 69.4047 18.016C69.9167 18.704 70.2527 19.488 70.4127 20.368L67.4847 20.992C67.4207 20.512 67.2767 20.08 67.0527 19.696C66.8287 19.312 66.5087 19.008 66.0927 18.784C65.6927 18.56 65.1887 18.448 64.5807 18.448C63.9727 18.448 63.4207 18.584 62.9247 18.856C62.4447 19.112 62.0607 19.504 61.7727 20.032C61.5007 20.544 61.3647 21.176 61.3647 21.928V22.168C61.3647 22.92 61.5007 23.56 61.7727 24.088C62.0607 24.6 62.4447 24.992 62.9247 25.264C63.4207 25.52 63.9727 25.648 64.5807 25.648C65.4927 25.648 66.1807 25.416 66.6447 24.952C67.1247 24.472 67.4287 23.848 67.5567 23.08L70.4847 23.776C70.2767 24.624 69.9167 25.4 69.4047 26.104C68.9087 26.792 68.2527 27.336 67.4367 27.736C66.6207 28.136 65.6447 28.336 64.5087 28.336ZM72.9792 28V11.2H76.0032V17.56H76.4352C76.5632 17.304 76.7632 17.048 77.0352 16.792C77.3072 16.536 77.6672 16.328 78.1152 16.168C78.5792 15.992 79.1632 15.904 79.8672 15.904C80.7952 15.904 81.6032 16.12 82.2912 16.552C82.9952 16.968 83.5392 17.552 83.9232 18.304C84.3072 19.04 84.4992 19.904 84.4992 20.896V28H81.4752V21.136C81.4752 20.24 81.2512 19.568 80.8032 19.12C80.3712 18.672 79.7472 18.448 78.9312 18.448C78.0032 18.448 77.2832 18.76 76.7712 19.384C76.2592 19.992 76.0032 20.848 76.0032 21.952V28H72.9792ZM93.1923 28.336C92.0083 28.336 90.9603 28.088 90.0483 27.592C89.1523 27.08 88.4483 26.368 87.9363 25.456C87.4403 24.528 87.1923 23.44 87.1923 22.192V21.904C87.1923 20.656 87.4403 19.576 87.9363 18.664C88.4323 17.736 89.1283 17.024 90.0243 16.528C90.9203 16.016 91.9603 15.76 93.1443 15.76C94.3123 15.76 95.3283 16.024 96.1923 16.552C97.0563 17.064 97.7283 17.784 98.2083 18.712C98.6883 19.624 98.9283 20.688 98.9283 21.904V22.936H90.2643C90.2963 23.752 90.6003 24.416 91.1763 24.928C91.7523 25.44 92.4563 25.696 93.2883 25.696C94.1363 25.696 94.7603 25.512 95.1603 25.144C95.5603 24.776 95.8643 24.368 96.0723 23.92L98.5443 25.216C98.3203 25.632 97.9923 26.088 97.5603 26.584C97.1443 27.064 96.5843 27.48 95.8803 27.832C95.1763 28.168 94.2803 28.336 93.1923 28.336ZM90.2883 20.68H95.8563C95.7923 19.992 95.5123 19.44 95.0163 19.024C94.5363 18.608 93.9043 18.4 93.1203 18.4C92.3043 18.4 91.6563 18.608 91.1763 19.024C90.6963 19.44 90.4003 19.992 90.2883 20.68ZM102.533 28L100.853 16.096H103.853L104.909 25.96H105.341L106.877 16.096H111.725L113.261 25.96H113.693L114.749 16.096H117.749L116.069 28H111.053L109.517 18.136H109.085L107.549 28H102.533ZM132.079 28.336C130.927 28.336 129.879 28.096 128.935 27.616C128.007 27.136 127.271 26.44 126.727 25.528C126.183 24.616 125.911 23.512 125.911 22.216V21.88C125.911 20.584 126.183 19.48 126.727 18.568C127.271 17.656 128.007 16.96 128.935 16.48C129.879 16 130.927 15.76 132.079 15.76C133.215 15.76 134.191 15.96 135.007 16.36C135.823 16.76 136.479 17.312 136.975 18.016C137.487 18.704 137.823 19.488 137.983 20.368L135.055 20.992C134.991 20.512 134.847 20.08 134.623 19.696C134.399 19.312 134.079 19.008 133.663 18.784C133.263 18.56 132.759 18.448 132.151 18.448C131.543 18.448 130.991 18.584 130.495 18.856C130.015 19.112 129.631 19.504 129.343 20.032C129.071 20.544 128.935 21.176 128.935 21.928V22.168C128.935 22.92 129.071 23.56 129.343 24.088C129.631 24.6 130.015 24.992 130.495 25.264C130.991 25.52 131.543 25.648 132.151 25.648C133.063 25.648 133.751 25.416 134.215 24.952C134.695 24.472 134.999 23.848 135.127 23.08L138.055 23.776C137.847 24.624 137.487 25.4 136.975 26.104C136.479 26.792 135.823 27.336 135.007 27.736C134.191 28.136 133.215 28.336 132.079 28.336ZM140.55 28V11.2H143.574V17.56H144.006C144.134 17.304 144.334 17.048 144.606 16.792C144.878 16.536 145.238 16.328 145.686 16.168C146.15 15.992 146.734 15.904 147.438 15.904C148.366 15.904 149.174 16.12 149.862 16.552C150.566 16.968 151.11 17.552 151.494 18.304C151.878 19.04 152.07 19.904 152.07 20.896V28H149.046V21.136C149.046 20.24 148.822 19.568 148.374 19.12C147.942 18.672 147.318 18.448 146.502 18.448C145.574 18.448 144.854 18.76 144.342 19.384C143.83 19.992 143.574 20.848 143.574 21.952V28H140.55ZM160.763 28.336C159.579 28.336 158.531 28.088 157.619 27.592C156.723 27.08 156.019 26.368 155.507 25.456C155.011 24.528 154.763 23.44 154.763 22.192V21.904C154.763 20.656 155.011 19.576 155.507 18.664C156.003 17.736 156.699 17.024 157.595 16.528C158.491 16.016 159.531 15.76 160.715 15.76C161.883 15.76 162.899 16.024 163.763 16.552C164.627 17.064 165.299 17.784 165.779 18.712C166.259 19.624 166.499 20.688 166.499 21.904V22.936H157.835C157.867 23.752 158.171 24.416 158.747 24.928C159.323 25.44 160.027 25.696 160.859 25.696C161.707 25.696 162.331 25.512 162.731 25.144C163.131 24.776 163.435 24.368 163.643 23.92L166.115 25.216C165.891 25.632 165.563 26.088 165.131 26.584C164.715 27.064 164.155 27.48 163.451 27.832C162.747 28.168 161.851 28.336 160.763 28.336ZM157.859 20.68H163.427C163.363 19.992 163.083 19.44 162.587 19.024C162.107 18.608 161.475 18.4 160.691 18.4C159.875 18.4 159.227 18.608 158.747 19.024C158.267 19.44 157.971 19.992 157.859 20.68ZM170.103 28L168.423 16.096H171.423L172.479 25.96H172.911L174.447 16.096H179.295L180.831 25.96H181.263L182.319 16.096H185.319L183.639 28H178.623L177.087 18.136H176.655L175.119 28H170.103Z" fill="#0C5446"/>
</svg>
