<svg width="928" height="233" viewBox="0 0 928 233" fill="none" xmlns="http://www.w3.org/2000/svg">
<path d="M244.306 207.66H829.283V213.089H244.306V207.66Z" fill="#0C5446"/>
<path d="M484.582 37.3681L497.808 54.0437C498.456 54.8597 499.475 55.2881 500.511 55.1796L545.519 50.462C546.651 50.3433 547.622 49.6034 548.037 48.5437L554.871 31.0777C555.88 28.499 553.201 26.0217 550.709 27.2289L550.18 27.4853C548.383 28.3558 546.249 27.2896 545.865 25.3299L543.177 11.5832C542.722 9.25504 539.897 8.31921 538.142 9.91526L530.601 16.7731C529.274 17.9794 527.198 17.7838 526.12 16.3511L520.609 9.02537C519.082 6.99607 515.888 7.61815 515.235 10.0721L512.448 20.5356C511.85 22.7817 509.057 23.5558 507.388 21.938L501.704 16.4281C499.659 14.4454 496.254 16.1073 496.559 18.9396L497.857 31.0009C498.087 33.1362 496.093 34.8317 494.022 34.2616L487.775 32.5416C484.937 31.7602 482.753 35.0617 484.582 37.3681Z" fill="#649188"/>
<path d="M525.151 175.773C534.984 199.48 570.31 192.255 570.045 166.591L568.932 58.8305C568.835 49.4956 563.245 40.9215 554.354 38.0755C527.264 29.4038 509.854 33.1558 489.084 50.6556C481.868 56.735 480.01 66.9414 483.625 75.6568L525.151 175.773Z" fill="#FD8331"/>
<path d="M515.233 71.0258C515.717 73.5007 514.103 75.8994 511.628 76.3833C509.153 76.8672 506.755 75.2532 506.271 72.7783C505.787 70.3033 507.401 67.9047 509.876 67.4208C512.351 66.9368 514.749 68.5509 515.233 71.0258Z" fill="#0C5446"/>
<path d="M546.602 64.8922C547.086 67.3671 545.472 69.7658 542.997 70.2497C540.522 70.7336 538.123 69.1196 537.64 66.6447C537.156 64.1697 538.77 61.7711 541.245 61.2872C543.72 60.8032 546.118 62.4173 546.602 64.8922Z" fill="#0C5446"/>
<path fill-rule="evenodd" clip-rule="evenodd" d="M527.292 73.3219C527.279 73.3235 527.266 73.3255 527.254 73.328C526.95 73.3874 526.756 73.6826 526.768 73.9922C526.778 74.2737 526.755 74.5562 526.699 74.8336C526.606 75.2948 526.422 75.7331 526.16 76.1234C525.897 76.5138 525.56 76.8486 525.168 77.1088C524.776 77.3689 524.336 77.5493 523.875 77.6396C523.413 77.7298 522.938 77.7283 522.477 77.635C522.015 77.5417 521.577 77.3585 521.187 77.0958C520.796 76.8331 520.462 76.4961 520.201 76.1041C520.045 75.8682 519.917 75.6152 519.821 75.3505C519.715 75.0595 519.424 74.8589 519.12 74.9184C518.816 74.9778 518.615 75.274 518.71 75.5687C518.842 75.9767 519.029 76.3656 519.267 76.7242C519.608 77.2391 520.048 77.6816 520.56 78.0265C521.073 78.3714 521.649 78.612 522.254 78.7345C522.86 78.857 523.483 78.859 524.09 78.7404C524.696 78.6219 525.273 78.3851 525.788 78.0435C526.303 77.7019 526.745 77.2623 527.09 76.7497C527.362 76.3455 527.569 75.9022 527.705 75.4359C528.006 75.8168 528.365 76.1495 528.769 76.4214C529.282 76.7664 529.857 77.0069 530.463 77.1294C531.068 77.2519 531.692 77.254 532.298 77.1354C532.905 77.0169 533.482 76.78 533.997 76.4384C534.511 76.0969 534.954 75.6572 535.299 75.1446C535.644 74.632 535.884 74.0565 536.007 73.451C536.092 73.0291 536.119 72.5984 536.087 72.1708C536.065 71.8619 535.766 71.6635 535.462 71.7229C535.158 71.7824 534.965 72.0776 534.976 72.3872C534.986 72.6687 534.963 72.9511 534.907 73.2286C534.814 73.6897 534.631 74.128 534.368 74.5184C534.106 74.9088 533.769 75.2436 533.376 75.5037C532.984 75.7639 532.545 75.9442 532.083 76.0345C531.621 76.1248 531.146 76.1233 530.685 76.03C530.224 75.9367 529.786 75.7535 529.395 75.4908C529.005 75.2281 528.67 74.8911 528.41 74.499C528.253 74.2632 528.126 74.0102 528.029 73.7455C527.923 73.4545 527.633 73.2539 527.329 73.3133C527.316 73.3158 527.304 73.3186 527.292 73.3219Z" fill="#0C5446"/>
<path fill-rule="evenodd" clip-rule="evenodd" d="M499.536 101.431C499.634 101.022 500.044 100.77 500.453 100.867C514.48 104.215 524.617 105.055 533.822 103.167C543.023 101.279 551.379 96.6462 561.813 88.8758C562.15 88.6248 562.627 88.6946 562.878 89.0316C563.129 89.3687 563.059 89.8455 562.722 90.0966C552.22 97.9175 543.652 102.704 534.127 104.658C524.606 106.612 514.216 105.717 500.1 102.348C499.691 102.25 499.439 101.84 499.536 101.431Z" fill="#FF6700"/>
<path fill-rule="evenodd" clip-rule="evenodd" d="M565.217 119.386C565.442 119.74 565.338 120.211 564.983 120.436C555.222 126.639 547.372 130.56 539.071 132.287C530.761 134.016 522.068 133.533 510.638 131.052C510.227 130.963 509.967 130.558 510.056 130.147C510.145 129.737 510.55 129.476 510.961 129.565C522.276 132.021 530.736 132.466 538.761 130.797C546.793 129.126 554.459 125.321 564.167 119.152C564.521 118.926 564.992 119.031 565.217 119.386Z" fill="#FF6700"/>
<path fill-rule="evenodd" clip-rule="evenodd" d="M522.758 160.755C522.844 160.344 523.246 160.079 523.658 160.165C532.242 161.946 538.663 162.442 544.672 161.296C550.676 160.15 556.345 157.349 563.398 152.401C563.742 152.159 564.216 152.243 564.458 152.587C564.699 152.931 564.616 153.405 564.272 153.647C557.132 158.657 551.259 161.588 544.957 162.791C538.661 163.992 532.012 163.452 523.349 161.655C522.937 161.57 522.673 161.167 522.758 160.755Z" fill="#FF6700"/>
<path d="M721.332 80.3112C720.337 72.6487 730.18 65.0551 743.315 63.3503C756.451 61.6456 767.906 66.4753 768.9 74.1378C769.895 81.8003 760.052 89.3939 746.916 91.0987C733.781 92.8034 722.326 87.9737 721.332 80.3112Z" fill="#0C5446"/>
<path d="M713.99 83.4135C708.452 78.0252 711.45 65.961 720.687 56.4673C729.924 46.9736 741.902 43.6455 747.44 49.0337C752.978 54.4219 749.979 66.4862 740.742 75.9799C731.505 85.4736 719.528 88.8017 713.99 83.4135Z" fill="#0C5446"/>
<path fill-rule="evenodd" clip-rule="evenodd" d="M760.498 113.09C762.054 103.833 760.058 94.3692 754.95 86.78C749.841 79.1909 742.038 74.0982 733.257 72.6222C729.051 71.9153 724.786 72.0659 720.681 73.0193C717.112 70.7759 713.131 69.2393 708.925 68.5324C700.144 67.0564 691.105 69.3182 683.796 74.8201C676.487 80.322 671.506 88.6134 669.95 97.8702C668.951 103.816 669.133 109.9 670.485 115.775C671.837 121.65 674.332 127.202 677.83 132.113C681.327 137.023 685.758 141.197 690.868 144.395C695.979 147.594 701.669 149.755 707.614 150.754C713.56 151.753 719.644 151.572 725.519 150.22C731.395 148.868 736.946 146.372 741.857 142.875C746.768 139.377 750.941 134.947 754.14 129.836C757.338 124.726 759.499 119.035 760.498 113.09Z" fill="#FF5621"/>
<path d="M703.632 97.5842C703.15 100.448 700.438 102.38 697.574 101.898C694.71 101.417 692.779 98.7049 693.26 95.8409C693.742 92.977 696.454 91.0456 699.318 91.527C702.182 92.0084 704.113 94.7203 703.632 97.5842Z" fill="#0C5446"/>
<path d="M739.531 103.618C739.05 106.482 736.338 108.414 733.474 107.932C730.61 107.451 728.679 104.739 729.16 101.875C729.642 99.0113 732.354 97.0799 735.218 97.5613C738.081 98.0427 740.013 100.755 739.531 103.618Z" fill="#0C5446"/>
<path fill-rule="evenodd" clip-rule="evenodd" d="M715.524 104.917C715.51 104.913 715.496 104.911 715.482 104.908C715.133 104.849 714.808 105.081 714.697 105.409C714.596 105.708 714.459 105.994 714.289 106.262C714.006 106.707 713.635 107.092 713.199 107.396C712.763 107.7 712.269 107.916 711.746 108.032C711.224 108.148 710.682 108.162 710.152 108.073C709.622 107.984 709.115 107.794 708.659 107.513C708.203 107.232 707.807 106.867 707.494 106.437C707.181 106.007 706.957 105.522 706.835 105.009C706.761 104.7 706.725 104.385 706.727 104.07C706.73 103.723 706.499 103.398 706.15 103.34C705.801 103.281 705.468 103.511 705.453 103.857C705.431 104.335 705.477 104.816 705.588 105.286C705.749 105.96 706.043 106.597 706.454 107.161C706.865 107.725 707.385 108.205 707.983 108.574C708.582 108.943 709.249 109.192 709.944 109.309C710.64 109.426 711.351 109.408 712.038 109.255C712.724 109.103 713.372 108.819 713.945 108.42C714.397 108.106 714.795 107.725 715.125 107.291C715.296 107.809 715.547 108.299 715.871 108.744C716.282 109.308 716.802 109.788 717.401 110.157C718 110.525 718.666 110.775 719.361 110.892C720.057 111.009 720.768 110.991 721.455 110.838C722.141 110.686 722.79 110.402 723.362 110.003C723.935 109.604 724.422 109.098 724.794 108.514C725.053 108.107 725.253 107.667 725.389 107.208C725.487 106.876 725.248 106.55 724.899 106.491C724.55 106.432 724.226 106.664 724.114 106.992C724.013 107.291 723.877 107.577 723.706 107.845C723.423 108.29 723.053 108.675 722.616 108.979C722.18 109.282 721.686 109.499 721.164 109.615C720.641 109.731 720.099 109.745 719.569 109.656C719.04 109.567 718.532 109.377 718.076 109.096C717.62 108.815 717.224 108.449 716.911 108.02C716.598 107.59 716.374 107.105 716.252 106.592C716.178 106.283 716.143 105.968 716.145 105.653C716.147 105.306 715.916 104.981 715.567 104.923C715.553 104.92 715.539 104.918 715.524 104.917Z" fill="#0C5446"/>
<path fill-rule="evenodd" clip-rule="evenodd" d="M900.017 21.609C881.954 21.0293 868.116 36.1973 856.353 50.6363C846.126 63.1898 841.953 78.2107 840.59 94.5563C838.587 118.565 828.567 148.509 846.994 162.826C865.668 177.335 892.382 162.796 912.791 150.655C928.463 141.33 935.901 124.104 941.883 106.372C947.813 88.7933 953.691 69.949 945.566 53.4995C936.75 35.6506 919.328 22.2288 900.017 21.609Z" fill="#FFF8F8"/>
<path fill-rule="evenodd" clip-rule="evenodd" d="M877.873 63.6535C877.873 63.6535 896.037 62.8809 906.103 73.0781C908.553 88.1646 896.16 106.407 889.828 122.266C883.968 136.941 877.72 153.288 868.135 158.263C858.556 163.235 849.741 156.597 844.7 145.687C840.501 136.597 843.682 122.17 845.349 108.946C846.874 96.852 847.917 84.5215 853.639 74.7937C860.751 62.7042 864.06 64.9275 877.873 63.6535Z" fill="#F77763"/>
<path d="M889.004 139.219C895.64 124.77 905.408 95.9491 909.509 85.1316C910.027 83.8356 910.512 81.2413 912.1 78.6512C913.688 76.0611 914.607 74.0394 917.448 72.181C920.289 70.3226 921.956 69.6076 926.305 69.3592C930.654 69.1109 936.355 68.6159 939.193 70.9392C942.031 73.2624 941.169 74.1315 940.493 80.9756C939.817 87.8196 939.811 95.417 935.812 105.16C931.814 114.902 925.594 122.033 920.5 129.689C915.405 137.345 916.689 138.238 910.34 143.441C903.991 148.643 895.556 152.914 888.754 155.702C881.953 158.489 876.282 160.673 876.332 157.377C876.382 154.08 882.369 153.668 889.004 139.219Z" fill="#F85F48"/>
<path d="M868.371 48.8509C869.471 45.9525 881.917 32.3783 896.751 29.8994C911.584 27.4205 922.241 36.4242 926.141 40.3689C930.041 44.3136 933.075 48.2663 935.215 52.5057C937.355 56.7451 944.488 65.1569 926.667 64.867C908.846 64.5771 902.32 63.8252 888.916 59.6357C875.512 55.4462 868.824 60.4029 865.196 58.8866C861.569 57.3704 867.271 51.7493 868.371 48.8509Z" fill="#E6442B"/>
<path d="M865.987 84.547C865.71 86.9498 863.538 88.6733 861.135 88.3964C858.732 88.1196 857.009 85.9472 857.286 83.5444C857.563 81.1416 859.735 79.4181 862.138 79.6949C864.541 79.9718 866.264 82.1441 865.987 84.547Z" fill="#0C5446"/>
<path d="M896.108 88.0174C895.831 90.4202 893.658 92.1437 891.256 91.8668C888.853 91.59 887.129 89.4176 887.406 87.0148C887.683 84.612 889.855 82.8885 892.258 83.1653C894.661 83.4422 896.385 85.6145 896.108 88.0174Z" fill="#0C5446"/>
<path fill-rule="evenodd" clip-rule="evenodd" d="M876.195 90.1328C876.183 90.1306 876.171 90.1289 876.159 90.1275C875.867 90.0937 875.607 90.3005 875.529 90.5782C875.458 90.8308 875.356 91.0747 875.226 91.3047C875.009 91.6871 874.718 92.0236 874.368 92.2951C874.018 92.5666 873.617 92.7676 873.187 92.8868C872.758 93.006 872.308 93.041 871.863 92.9898C871.419 92.9386 870.988 92.8022 870.597 92.5884C870.205 92.3745 869.86 92.0875 869.582 91.7436C869.303 91.3997 869.095 91.0057 868.972 90.5841C868.897 90.3305 868.854 90.0699 868.842 89.8078C868.829 89.5196 868.623 89.2591 868.33 89.2254C868.038 89.1917 867.77 89.397 867.772 89.6854C867.775 90.0846 867.834 90.4826 867.947 90.8683C868.109 91.4219 868.382 91.9392 868.748 92.3908C869.114 92.8423 869.567 93.2192 870.081 93.5C870.595 93.7808 871.16 93.9599 871.744 94.0272C872.327 94.0944 872.918 94.0485 873.483 93.8919C874.047 93.7354 874.574 93.4714 875.033 93.115C875.395 92.8339 875.71 92.4997 875.966 92.1248C876.13 92.5481 876.36 92.9451 876.649 93.3011C877.015 93.7527 877.468 94.1296 877.982 94.4104C878.496 94.6912 879.061 94.8703 879.645 94.9375C880.228 95.0048 880.819 94.9588 881.384 94.8023C881.948 94.6458 882.475 94.3818 882.934 94.0253C883.393 93.6689 883.776 93.227 884.06 92.7248C884.258 92.375 884.406 92.0007 884.499 91.6127C884.567 91.3323 884.353 91.0715 884.061 91.0378C883.768 91.0041 883.508 91.2109 883.43 91.4886C883.359 91.7411 883.257 91.985 883.127 92.2151C882.911 92.5975 882.619 92.934 882.269 93.2055C881.92 93.4769 881.518 93.678 881.089 93.7972C880.659 93.9164 880.209 93.9514 879.764 93.9002C879.32 93.849 878.889 93.7126 878.498 93.4987C878.107 93.2849 877.762 92.9978 877.483 92.654C877.204 92.3101 876.997 91.9161 876.873 91.4945C876.798 91.2409 876.755 90.9803 876.743 90.7181C876.73 90.4299 876.524 90.1695 876.231 90.1358C876.219 90.1344 876.207 90.1334 876.195 90.1328Z" fill="#0C5446"/>
<path fill-rule="evenodd" clip-rule="evenodd" d="M315.864 84.9503C316.177 82.4521 315.231 79.996 313.628 78.0544C309.301 72.813 307.11 66.661 307.895 60.3814C309.793 45.2004 328.364 35.0227 349.376 37.6489C356.187 38.5001 362.418 40.5921 367.665 43.5481C369.959 44.8406 372.689 45.1819 375.231 44.4938C381.044 42.9202 387.598 42.4263 394.409 43.2775C415.42 45.9037 430.915 60.3394 429.018 75.5205C428.233 81.8 424.595 87.2235 419.112 91.2388C417.081 92.7263 415.559 94.8739 415.247 97.3721L407.925 155.953C407.382 160.297 403.421 163.378 399.077 162.835L315.424 152.379C311.081 151.837 307.999 147.875 308.542 143.531L315.864 84.9503Z" fill="#FFFEF8"/>
<path fill-rule="evenodd" clip-rule="evenodd" d="M315.76 61.3645C315.298 65.062 316.511 69.0959 319.741 73.0087C322.384 76.2114 324.373 80.7814 323.729 85.9333L316.407 144.514L400.06 154.97L407.382 96.389C408.026 91.2371 411.078 87.2973 414.429 84.8438C418.522 81.8463 420.691 78.2349 421.153 74.5374C421.707 70.1061 419.825 65.0779 414.901 60.4904C409.987 55.9117 402.461 52.272 393.426 51.1426C387.598 50.4142 382.083 50.8505 377.302 52.1447C372.752 53.3763 367.881 52.7675 363.774 50.4539C359.459 48.0227 354.221 46.2424 348.393 45.514C339.357 44.3846 331.168 46.0602 325.277 49.2884C319.375 52.5227 316.314 56.9331 315.76 61.3645ZM313.628 78.0544C315.231 79.996 316.177 82.4521 315.864 84.9503L308.542 143.531C307.999 147.875 311.081 151.837 315.424 152.379L399.077 162.835C403.421 163.378 407.382 160.297 407.925 155.953L415.247 97.3721C415.559 94.8739 417.081 92.7263 419.112 91.2388C424.595 87.2235 428.233 81.8 429.018 75.5205C430.915 60.3394 415.42 45.9037 394.409 43.2775C387.598 42.4263 381.044 42.9202 375.231 44.4938C372.689 45.1819 369.959 44.8406 367.665 43.5481C362.418 40.5921 356.187 38.5001 349.376 37.6489C328.364 35.0227 309.793 45.2004 307.895 60.3814C307.11 66.661 309.301 72.813 313.628 78.0544Z" fill="#ECD8A9"/>
<path d="M352.689 81.553C352.312 84.5695 349.561 86.7092 346.545 86.3322C343.528 85.9552 341.388 83.2042 341.765 80.1876C342.142 77.1711 344.893 75.0314 347.91 75.4084C350.926 75.7855 353.066 78.5365 352.689 81.553Z" fill="#0C5446"/>
<path d="M390.922 86.3317C390.545 89.3483 387.794 91.488 384.778 91.1109C381.761 90.7339 379.621 87.9829 379.998 84.9664C380.376 81.9499 383.127 79.8102 386.143 80.1872C389.16 80.5642 391.299 83.3152 390.922 86.3317Z" fill="#0C5446"/>
<path fill-rule="evenodd" clip-rule="evenodd" d="M365.635 88.7199C365.62 88.717 365.605 88.7146 365.589 88.7127C365.219 88.6664 364.886 88.9317 364.783 89.2905C364.688 89.6168 364.556 89.9316 364.387 90.2282C364.107 90.7213 363.732 91.1543 363.284 91.5025C362.837 91.8508 362.325 92.1074 361.778 92.2578C361.231 92.4082 360.66 92.4494 360.097 92.379C359.534 92.3087 358.991 92.1282 358.498 91.8478C358.005 91.5674 357.572 91.1927 357.223 90.7449C356.875 90.2972 356.618 89.7853 356.468 89.2384C356.378 88.9094 356.327 88.5716 356.316 88.2322C356.304 87.859 356.046 87.5199 355.676 87.4736C355.305 87.4273 354.963 87.6907 354.961 88.0641C354.959 88.5808 355.027 89.0966 355.164 89.5969C355.362 90.3151 355.699 90.9873 356.156 91.5751C356.613 92.163 357.182 92.6551 357.829 93.0233C358.477 93.3914 359.19 93.6285 359.929 93.7208C360.668 93.8132 361.418 93.7591 362.136 93.5616C362.855 93.3642 363.527 93.0272 364.115 92.5699C364.578 92.2094 364.982 91.7796 365.313 91.2966C365.514 91.8461 365.8 92.3621 366.161 92.8256C366.618 93.4135 367.186 93.9056 367.834 94.2738C368.481 94.6419 369.195 94.879 369.934 94.9713C370.673 95.0637 371.423 95.0096 372.141 94.8121C372.859 94.6146 373.531 94.2777 374.119 93.8204C374.707 93.3631 375.199 92.7946 375.567 92.1471C375.824 91.6961 376.017 91.2129 376.141 90.7114C376.231 90.349 375.965 90.0095 375.594 89.9632C375.224 89.9169 374.891 90.1822 374.787 90.541C374.693 90.8673 374.561 91.1821 374.392 91.4787C374.112 91.9718 373.737 92.4048 373.289 92.753C372.841 93.1012 372.33 93.3579 371.783 93.5083C371.236 93.6587 370.665 93.6999 370.102 93.6295C369.539 93.5592 368.995 93.3787 368.502 93.0983C368.009 92.8179 367.576 92.4432 367.228 91.9954C366.88 91.5477 366.623 91.0358 366.473 90.4889C366.382 90.1599 366.331 89.8221 366.32 89.4827C366.308 89.1095 366.051 88.7704 365.681 88.7241C365.665 88.7222 365.65 88.7208 365.635 88.7199Z" fill="#0C5446"/>
<path d="M293.846 139.119C293.846 131.623 299.922 125.546 307.418 125.546H415.999C423.495 125.546 429.571 131.623 429.571 139.119V196.802C429.571 204.298 423.495 210.375 415.999 210.375H307.418C299.922 210.375 293.846 204.298 293.846 196.802V139.119Z" fill="#D8D0BD"/>
<path d="M428.186 200.874H295.43C294.56 200.874 293.742 201.291 293.232 201.995L283.395 215.568C282.094 217.363 283.377 219.875 285.593 219.875H438.023C440.239 219.875 441.522 217.363 440.221 215.568L430.384 201.995C429.874 201.291 429.056 200.874 428.186 200.874Z" fill="#0C5446"/>
<path d="M346.779 210.375C346.779 222.743 336.752 232.769 324.384 232.769C312.016 232.769 301.989 222.743 301.989 210.375C301.989 198.006 312.016 187.98 324.384 187.98C336.752 187.98 346.779 198.006 346.779 210.375Z" fill="#5E8676"/>
<path fill-rule="evenodd" clip-rule="evenodd" d="M324.384 225.983C333.004 225.983 339.992 218.995 339.992 210.375C339.992 201.754 333.004 194.766 324.384 194.766C315.764 194.766 308.776 201.754 308.776 210.375C308.776 218.995 315.764 225.983 324.384 225.983ZM324.384 232.769C336.752 232.769 346.779 222.743 346.779 210.375C346.779 198.006 336.752 187.98 324.384 187.98C312.016 187.98 301.989 198.006 301.989 210.375C301.989 222.743 312.016 232.769 324.384 232.769Z" fill="#0C5446"/>
<path d="M421.428 210.375C421.428 222.743 411.401 232.769 399.033 232.769C386.665 232.769 376.638 222.743 376.638 210.375C376.638 198.006 386.665 187.98 399.033 187.98C411.401 187.98 421.428 198.006 421.428 210.375Z" fill="#5E8676"/>
<path fill-rule="evenodd" clip-rule="evenodd" d="M399.033 225.983C407.653 225.983 414.642 218.995 414.642 210.375C414.642 201.754 407.653 194.766 399.033 194.766C390.413 194.766 383.425 201.754 383.425 210.375C383.425 218.995 390.413 225.983 399.033 225.983ZM399.033 232.769C411.401 232.769 421.428 222.743 421.428 210.375C421.428 198.006 411.401 187.98 399.033 187.98C386.665 187.98 376.638 198.006 376.638 210.375C376.638 222.743 386.665 232.769 399.033 232.769Z" fill="#0C5446"/>
<path d="M468.932 139.119C468.932 131.623 475.008 125.546 482.504 125.546H591.085C598.581 125.546 604.657 131.623 604.657 139.119V196.802C604.657 204.298 598.581 210.375 591.085 210.375H482.504C475.008 210.375 468.932 204.298 468.932 196.802V139.119Z" fill="#D8D0BD"/>
<path d="M603.272 200.874H470.516C469.646 200.874 468.828 201.291 468.318 201.995L458.481 215.568C457.18 217.363 458.462 219.875 460.679 219.875H613.109C615.325 219.875 616.607 217.363 615.307 215.568L605.47 201.995C604.959 201.291 604.142 200.874 603.272 200.874Z" fill="#0C5446"/>
<path d="M521.865 210.375C521.865 222.743 511.838 232.769 499.47 232.769C487.102 232.769 477.075 222.743 477.075 210.375C477.075 198.006 487.102 187.98 499.47 187.98C511.838 187.98 521.865 198.006 521.865 210.375Z" fill="#5E8676"/>
<path fill-rule="evenodd" clip-rule="evenodd" d="M499.47 225.983C508.09 225.983 515.078 218.995 515.078 210.375C515.078 201.754 508.09 194.766 499.47 194.766C490.85 194.766 483.861 201.754 483.861 210.375C483.861 218.995 490.85 225.983 499.47 225.983ZM499.47 232.769C511.838 232.769 521.865 222.743 521.865 210.375C521.865 198.006 511.838 187.98 499.47 187.98C487.102 187.98 477.075 198.006 477.075 210.375C477.075 222.743 487.102 232.769 499.47 232.769Z" fill="#0C5446"/>
<path d="M596.514 210.375C596.514 222.743 586.487 232.769 574.119 232.769C561.751 232.769 551.724 222.743 551.724 210.375C551.724 198.006 561.751 187.98 574.119 187.98C586.487 187.98 596.514 198.006 596.514 210.375Z" fill="#5E8676"/>
<path fill-rule="evenodd" clip-rule="evenodd" d="M574.119 225.983C582.739 225.983 589.727 218.995 589.727 210.375C589.727 201.754 582.739 194.766 574.119 194.766C565.499 194.766 558.51 201.754 558.51 210.375C558.51 218.995 565.499 225.983 574.119 225.983ZM574.119 232.769C586.487 232.769 596.514 222.743 596.514 210.375C596.514 198.006 586.487 187.98 574.119 187.98C561.751 187.98 551.724 198.006 551.724 210.375C551.724 222.743 561.751 232.769 574.119 232.769Z" fill="#0C5446"/>
<path d="M644.018 139.119C644.018 131.623 650.094 125.546 657.59 125.546H766.171C773.666 125.546 779.743 131.623 779.743 139.119V196.802C779.743 204.298 773.666 210.375 766.171 210.375H657.59C650.094 210.375 644.018 204.298 644.018 196.802V139.119Z" fill="#D8D0BD"/>
<path d="M778.358 200.874H645.602C644.732 200.874 643.914 201.291 643.404 201.995L633.567 215.568C632.266 217.363 633.549 219.875 635.765 219.875H788.195C790.411 219.875 791.694 217.363 790.393 215.568L780.556 201.995C780.046 201.291 779.228 200.874 778.358 200.874Z" fill="#0C5446"/>
<path d="M696.951 210.375C696.951 222.743 686.924 232.769 674.556 232.769C662.188 232.769 652.161 222.743 652.161 210.375C652.161 198.006 662.188 187.98 674.556 187.98C686.924 187.98 696.951 198.006 696.951 210.375Z" fill="#5E8676"/>
<path fill-rule="evenodd" clip-rule="evenodd" d="M674.556 225.983C683.176 225.983 690.164 218.995 690.164 210.375C690.164 201.754 683.176 194.766 674.556 194.766C665.936 194.766 658.947 201.754 658.947 210.375C658.947 218.995 665.936 225.983 674.556 225.983ZM674.556 232.769C686.924 232.769 696.951 222.743 696.951 210.375C696.951 198.006 686.924 187.98 674.556 187.98C662.188 187.98 652.161 198.006 652.161 210.375C652.161 222.743 662.188 232.769 674.556 232.769Z" fill="#0C5446"/>
<path d="M771.599 210.375C771.599 222.743 761.573 232.769 749.205 232.769C736.837 232.769 726.81 222.743 726.81 210.375C726.81 198.006 736.837 187.98 749.205 187.98C761.573 187.98 771.599 198.006 771.599 210.375Z" fill="#5E8676"/>
<path fill-rule="evenodd" clip-rule="evenodd" d="M749.205 225.983C757.825 225.983 764.813 218.995 764.813 210.375C764.813 201.754 757.825 194.766 749.205 194.766C740.584 194.766 733.596 201.754 733.596 210.375C733.596 218.995 740.584 225.983 749.205 225.983ZM749.205 232.769C761.573 232.769 771.599 222.743 771.599 210.375C771.599 198.006 761.573 187.98 749.205 187.98C736.837 187.98 726.81 198.006 726.81 210.375C726.81 222.743 736.837 232.769 749.205 232.769Z" fill="#0C5446"/>
<path d="M819.104 139.119C819.104 131.623 825.18 125.546 832.676 125.546H941.256C948.752 125.546 954.829 131.623 954.829 139.119V196.802C954.829 204.298 948.752 210.375 941.256 210.375H832.676C825.18 210.375 819.104 204.298 819.104 196.802V139.119Z" fill="#D8D0BD"/>
<path d="M953.444 200.874H820.688C819.818 200.874 819 201.291 818.49 201.995L808.653 215.568C807.352 217.363 808.634 219.875 810.851 219.875H963.281C965.497 219.875 966.779 217.363 965.479 215.568L955.642 201.995C955.131 201.291 954.314 200.874 953.444 200.874Z" fill="#0C5446"/>
<path d="M872.036 210.375C872.036 222.743 862.01 232.769 849.642 232.769C837.274 232.769 827.247 222.743 827.247 210.375C827.247 198.006 837.274 187.98 849.642 187.98C862.01 187.98 872.036 198.006 872.036 210.375Z" fill="#5E8676"/>
<path fill-rule="evenodd" clip-rule="evenodd" d="M849.642 225.983C858.262 225.983 865.25 218.995 865.25 210.375C865.25 201.754 858.262 194.766 849.642 194.766C841.021 194.766 834.033 201.754 834.033 210.375C834.033 218.995 841.021 225.983 849.642 225.983ZM849.642 232.769C862.01 232.769 872.036 222.743 872.036 210.375C872.036 198.006 862.01 187.98 849.642 187.98C837.274 187.98 827.247 198.006 827.247 210.375C827.247 222.743 837.274 232.769 849.642 232.769Z" fill="#0C5446"/>
<path d="M946.686 210.375C946.686 222.743 936.659 232.769 924.291 232.769C911.923 232.769 901.896 222.743 901.896 210.375C901.896 198.006 911.923 187.98 924.291 187.98C936.659 187.98 946.686 198.006 946.686 210.375Z" fill="#5E8676"/>
<path fill-rule="evenodd" clip-rule="evenodd" d="M924.291 225.983C932.911 225.983 939.899 218.995 939.899 210.375C939.899 201.754 932.911 194.766 924.291 194.766C915.671 194.766 908.683 201.754 908.683 210.375C908.683 218.995 915.671 225.983 924.291 225.983ZM924.291 232.769C936.659 232.769 946.686 222.743 946.686 210.375C946.686 198.006 936.659 187.98 924.291 187.98C911.923 187.98 901.896 198.006 901.896 210.375C901.896 222.743 911.923 232.769 924.291 232.769Z" fill="#0C5446"/>
<path d="M51.5758 91.6146H240.913C248.409 91.6146 254.485 97.6913 254.485 105.187V196.802C254.485 204.298 248.409 210.374 240.913 210.374H51.5758V91.6146Z" fill="#D8D0BD"/>
<path d="M51.915 210.374C38.1463 210.374 24.9415 204.118 15.2056 192.982C5.4696 181.847 -3.8302e-07 166.743 0 150.995C3.8302e-07 135.246 5.4696 120.142 15.2056 109.007C24.9415 97.8707 38.1463 91.6146 51.915 91.6146V210.374Z" fill="#D8D0BD"/>
<path d="M140.476 10.1794H235.484V91.6147H140.476V10.1794Z" fill="#D8D0BD"/>
<path d="M232.543 0.678589H142.739C141.868 0.678589 141.051 1.09564 140.541 1.80013L130.704 15.3727C129.403 17.1674 130.685 19.6802 132.902 19.6802H242.379C244.596 19.6802 245.878 17.1674 244.577 15.3727L234.741 1.80013C234.23 1.09564 233.413 0.678589 232.543 0.678589Z" fill="#FF6700"/>
<path d="M252.901 200.874H22.6215C21.7514 200.874 20.9341 201.291 20.4235 201.995L10.5868 215.568C9.28611 217.363 10.5683 219.875 12.7848 219.875H262.738C264.955 219.875 266.237 217.363 264.936 215.568L255.099 201.995C254.589 201.291 253.772 200.874 252.901 200.874Z" fill="#0C5446"/>
<path d="M52.2543 47.5038H86.1857V91.6146H52.2543V47.5038Z" fill="#D8D0BD"/>
<path d="M83.104 38.0031H55.8742C55.0041 38.0031 54.1868 38.4202 53.6762 39.1247L43.8395 52.6972C42.5388 54.4919 43.821 57.0047 46.0375 57.0047H92.9407C95.1572 57.0047 96.4394 54.4919 95.1387 52.6972L85.302 39.1247C84.7914 38.4202 83.9741 38.0031 83.104 38.0031Z" fill="#FF6700"/>
<path d="M156.763 38.6817C156.763 35.6833 159.194 33.2527 162.192 33.2527H213.768C216.766 33.2527 219.197 35.6833 219.197 38.6817V72.6131C219.197 75.6115 216.766 78.0421 213.768 78.0421H162.192C159.194 78.0421 156.763 75.6115 156.763 72.6131V38.6817Z" fill="#FFFEF8"/>
<path d="M170.739 143.869C167.875 143.869 165.27 143.273 162.923 142.082C160.616 140.89 158.787 139.163 157.434 136.899C156.082 134.635 155.406 131.895 155.406 128.678V127.844C155.406 124.627 156.082 121.886 157.434 119.622C158.787 117.359 160.616 115.631 162.923 114.439C165.27 113.248 167.875 112.652 170.739 112.652C173.563 112.652 175.989 113.149 178.018 114.142C180.046 115.134 181.677 116.505 182.91 118.252C184.183 119.96 185.018 121.906 185.416 124.09L178.137 125.639C177.978 124.448 177.62 123.376 177.063 122.422C176.506 121.469 175.711 120.715 174.677 120.159C173.682 119.602 172.429 119.324 170.918 119.324C169.407 119.324 168.034 119.662 166.801 120.337C165.608 120.973 164.653 121.946 163.937 123.256C163.261 124.527 162.923 126.096 162.923 127.963V128.558C162.923 130.425 163.261 132.014 163.937 133.324C164.653 134.595 165.608 135.568 166.801 136.244C168.034 136.879 169.407 137.197 170.918 137.197C173.185 137.197 174.896 136.621 176.049 135.469C177.242 134.278 177.998 132.729 178.316 130.822L185.595 132.55C185.078 134.655 184.183 136.581 182.91 138.329C181.677 140.036 180.046 141.387 178.018 142.38C175.989 143.373 173.563 143.869 170.739 143.869Z" fill="#0C5446"/>
<path d="M205.698 143.869C202.834 143.869 200.229 143.273 197.882 142.082C195.575 140.89 193.745 139.163 192.393 136.899C191.041 134.635 190.364 131.895 190.364 128.678V127.844C190.364 124.627 191.041 121.886 192.393 119.622C193.745 117.359 195.575 115.631 197.882 114.439C200.229 113.248 202.834 112.652 205.698 112.652C208.522 112.652 210.948 113.149 212.977 114.142C215.005 115.134 216.636 116.505 217.869 118.252C219.142 119.96 219.977 121.906 220.375 124.09L213.096 125.639C212.937 124.448 212.579 123.376 212.022 122.422C211.465 121.469 210.67 120.715 209.636 120.159C208.641 119.602 207.388 119.324 205.877 119.324C204.365 119.324 202.993 119.662 201.76 120.337C200.567 120.973 199.612 121.946 198.896 123.256C198.22 124.527 197.882 126.096 197.882 127.963V128.558C197.882 130.425 198.22 132.014 198.896 133.324C199.612 134.595 200.567 135.568 201.76 136.244C202.993 136.879 204.365 137.197 205.877 137.197C208.144 137.197 209.854 136.621 211.008 135.469C212.201 134.278 212.957 132.729 213.275 130.822L220.554 132.55C220.037 134.655 219.142 136.581 217.869 138.329C216.636 140.036 215.005 141.387 212.977 142.38C210.948 143.373 208.522 143.869 205.698 143.869Z" fill="#0C5446"/>
<path d="M76.0063 210.375C76.0063 222.743 65.9799 232.769 53.6116 232.769C41.2434 232.769 31.2169 222.743 31.2169 210.375C31.2169 198.006 41.2434 187.98 53.6116 187.98C65.9799 187.98 76.0063 198.006 76.0063 210.375Z" fill="#5E8676"/>
<path fill-rule="evenodd" clip-rule="evenodd" d="M53.6116 225.983C62.2319 225.983 69.2201 218.995 69.2201 210.375C69.2201 201.754 62.2319 194.766 53.6116 194.766C44.9913 194.766 38.0032 201.754 38.0032 210.375C38.0032 218.995 44.9913 225.983 53.6116 225.983ZM53.6116 232.769C65.9799 232.769 76.0063 222.743 76.0063 210.375C76.0063 198.006 65.9799 187.98 53.6116 187.98C41.2434 187.98 31.2169 198.006 31.2169 210.375C31.2169 222.743 41.2434 232.769 53.6116 232.769Z" fill="#0C5446"/>
<path d="M127.582 210.375C127.582 222.743 117.556 232.769 105.187 232.769C92.8191 232.769 82.7926 222.743 82.7926 210.375C82.7926 198.006 92.8191 187.98 105.187 187.98C117.556 187.98 127.582 198.006 127.582 210.375Z" fill="#5E8676"/>
<path fill-rule="evenodd" clip-rule="evenodd" d="M105.187 225.983C113.808 225.983 120.796 218.995 120.796 210.375C120.796 201.754 113.808 194.766 105.187 194.766C96.567 194.766 89.5789 201.754 89.5789 210.375C89.5789 218.995 96.567 225.983 105.187 225.983ZM105.187 232.769C117.556 232.769 127.582 222.743 127.582 210.375C127.582 198.006 117.556 187.98 105.187 187.98C92.8191 187.98 82.7926 198.006 82.7926 210.375C82.7926 222.743 92.8191 232.769 105.187 232.769Z" fill="#0C5446"/>
<path d="M244.306 198.838C244.306 217.578 229.114 232.769 210.374 232.769C191.635 232.769 176.443 217.578 176.443 198.838C176.443 180.098 191.635 164.906 210.374 164.906C229.114 164.906 244.306 180.098 244.306 198.838Z" fill="#5E8676"/>
<path fill-rule="evenodd" clip-rule="evenodd" d="M210.374 225.983C225.366 225.983 237.52 213.83 237.52 198.838C237.52 183.846 225.366 171.693 210.374 171.693C195.383 171.693 183.229 183.846 183.229 198.838C183.229 213.83 195.383 225.983 210.374 225.983ZM210.374 232.769C229.114 232.769 244.306 217.578 244.306 198.838C244.306 180.098 229.114 164.906 210.374 164.906C191.635 164.906 176.443 180.098 176.443 198.838C176.443 217.578 191.635 232.769 210.374 232.769Z" fill="#0C5446"/>
</svg>
